{"title":"Wisin Ft. Jennifer Lopez &amp; Ricky Martin - Adrenalina [Music ","uid":9724655,"size":140740607,"categoryP":"video","categoryS":"music_videos","magnet":"?xt=urn:btih:0184f4d28c648cfafee153c49990ea5824f5d673&amp;dn=Wisin+Ft.+Jennifer+Lopez+%26amp%3B+Ricky+Martin+-+Adrenalina+%5BMusic+&amp;tr=udp%3A%2F%2Ftracker.openbittorrent.com%3A80&amp;tr=udp%3A%2F%2Fopen.demonii.com%3A1337&amp;tr=udp%3A%2F%2Ftracker.coppersurfer.tk%3A6969&amp;tr=udp%3A%2F%2Fexodus.desync.com%3A6969","seeders":23,"leechers":0,"uploader":"Sbyky","files":1,"time":1394284666,"description":"\n\nGeneral\nComplete name                            : Wisin Ft. Jennifer Lopez &amp; Ricky Martin - Adrenalina [Music Video] 1080p [Sbyky].MP4\nFormat                                   : MPEG-4\nFormat profile                           : Base Media\nCodec ID                                 : isom\nFile size                                : 134 MiB\nDuration                                 : 4mn 27s\nOverall bit rate mode                    : Variable\nOverall bit rate                         : 4 207 Kbps\nEncoded date                             : UTC 2014-02-28 02:32:19\nTagged date                              : UTC 2014-02-28 02:32:19\n\nVideo\nID                                       : 1\nFormat                                   : AVC\nFormat/Info                              : Advanced Video Codec\nFormat profile                           : &lt;a class=&quot;__cf_email__&quot; href=&quot;/cdn-cgi/l/email-protection&quot; data-cfemail=&quot;b5fddcd2ddf5f9819b85&quot;&gt;[email&amp;#160;protected]&lt;/a&gt;&lt;script cf-hash='f9e31' type=&quot;text/javascript&quot;&gt;\n/* &lt;![CDATA[ */!function(){try{var t=&quot;currentScript&quot;in document?document.currentScript:function(){for(var t=document.getElementsByTagName(&quot;script&quot;),e=t.length;e--;)if(t[e].getAttribute(&quot;cf-hash&quot;))return t[e]}();if(t&amp;&amp;t.previousSibling){var e,r,n,i,c=t.previousSibling,a=c.getAttribute(&quot;data-cfemail&quot;);if(a){for(e=&quot;&quot;,r=parseInt(a.substr(0,2),16),n=2;a.length-n;n+=2)i=parseInt(a.substr(n,2),16)^r,e+=String.fromCharCode(i);e=document.createTextNode(e),c.parentNode.replaceChild(e,c)}}}catch(u){}}();/* ]]&gt; */&lt;/script&gt;\nFormat settings, CABAC                   : Yes\nFormat settings, ReFrames                : 2 frames\nCodec ID                                 : avc1\nCodec ID/Info                            : Advanced Video Coding\nDuration                                 : 4mn 27s\nBit rate                                 : 4 079 Kbps\nWidth                                    : 1 920 pixels\nHeight                                   : 1 080 pixels\nDisplay aspect ratio                     : 16:9\nFrame rate mode                          : Variable\nFrame rate                               : 23.976 fps\nMinimum frame rate                       : 23.974 fps\nMaximum frame rate                       : 24.543 fps\nColor space                              : YUV\nChroma subsampling                       : 4:2:0\nBit depth                                : 8 bits\nScan type                                : Progressive\nBits/(Pixel*Frame)                       : 0.082\nStream size                              : 130 MiB (97%)\nEncoded date                             : UTC 2014-02-28 02:32:19\nTagged date                              : UTC 2014-02-28 02:32:19\n\nAudio\nID                                       : 2\nFormat                                   : AAC\nFormat/Info                              : Advanced Audio Codec\nFormat profile                           : LC\nCodec ID                                 : 40\nDuration                                 : 4mn 27s\nBit rate mode                            : Variable\nBit rate                                 : 126 Kbps\nChannel(s)                               : 2 channels\nChannel positions                        : Front: L R\nSampling rate                            : 44.1 KHz\nCompression mode                         : Lossy\nStream size                              : 4.01 MiB (3%)\nEncoded date                             : UTC 2014-02-28 02:28:22\nTagged date                              : UTC 2014-02-28 02:28:22\n\nShared By Sbyky\n","torrent":{"xt":"urn:btih:0184f4d28c648cfafee153c49990ea5824f5d673","amp;dn":"Wisin+Ft.+Jennifer+Lopez+%26amp%3B+Ricky+Martin+-+Adrenalina+%5BMusic+","amp;tr":["udp%3A%2F%2Ftracker.openbittorrent.com%3A80","udp%3A%2F%2Fopen.demonii.com%3A1337","udp%3A%2F%2Ftracker.coppersurfer.tk%3A6969","udp%3A%2F%2Fexodus.desync.com%3A6969"],"infoHash":"0184f4d28c648cfafee153c49990ea5824f5d673","infoHashBuffer":{"type":"Buffer","data":[1,132,244,210,140,100,140,250,254,225,83,196,153,144,234,88,36,245,214,115]},"announce":[],"urlList":[]}}